<?xml version="1.0" encoding="UTF-8" standalone="no"?>
<!DOCTYPE svg PUBLIC "-//W3C//DTD SVG 1.1//EN"
"http://www.w3.org/Graphics/SVG/1.1/DTD/svg11.dtd">
<svg viewBox="0 0 909 6149" version="1.1" xmlns="http://www.w3.org/2000/svg" xmlns:xlink="http://www.w3.org/1999/xlink">
<defs>
<clipPath id="c0_1"><path d="M0,6149.7V0H909.3V6149.7Z" /></clipPath>
<style type="text/css"><![CDATA[
.g0_1{
fill: #FFFFFF;
}
.g1_1{
fill: none;
stroke: #FFFFFF;
stroke-width: 1.4666667;
stroke-linecap: butt;
stroke-linejoin: miter;
}
.g2_1{
fill: none;
stroke: #FFFFFF;
stroke-width: 1.5277778;
stroke-linecap: butt;
stroke-linejoin: round;
}
.g3_1{
fill: #0563C1;
}
.g4_1{
}
]]></style>
</defs>
<g clip-path="url(#c0_1)">
<path fill-rule="evenodd" d="M0,6149.7H909.3V0H0V6149.7Z" class="g0_1" />
</g>
<image preserveAspectRatio="none" x="0" y="-15" width="909" height="249" xlink:href="img/1.png" />
<image preserveAspectRatio="none" x="394" y="3" width="121" height="121" xlink:href="img/2.png" />
<path d="M394.3,63.3c0,-33.4,27.1,-60.4,60.4,-60.4c33.3,0,60.3,27,60.3,60.4c0,33.3,-27,60.3,-60.3,60.3c-33.3,0,-60.4,-27,-60.4,-60.3Z" class="g1_1" />
<path d="M237.7,529.6V780m217,-250.4V780m217,-250.4V780M19.9,574.9H889.5M19.9,619.6H889.5M19.9,664.2H889.5M19.9,734.6H889.5M20.7,529.6V780M888.8,529.6V780M19.9,530.3H889.5M19.9,779.2H889.5" class="g2_1" />
<path fill-rule="evenodd" d="M276.6,652.1H415.7v1.1H276.6Z" class="g3_1" />
<path fill-rule="evenodd" d="M248.9,709.7H443.6v1.1H248.9Z" class="g3_1" />
<path fill-rule="evenodd" d="M682.9,709.7H877.4v1.1H682.9Z" class="g3_1" />
<path fill-rule="evenodd" d="M272.4,767.2H419.9v1.1H272.4Z" class="g3_1" />
<path fill-rule="evenodd" d="M742.5,767.2h75.4v1.1H742.5Z" class="g3_1" />
<path fill-rule="evenodd" d="M227.9,3303.8H233v-1.1h-5.1v1.1Z" class="g4_1" />
<path d="M227.3,356.1V491.5M454.7,356.1V491.5M682.1,356.1V491.5" class="g2_1" />
<g clip-path="url(#c0_1)">
<path d="M-.7,401.5H910.2M-.7,446.1H910.2M0,356.1V491.5M909.4,356.1V491.5M-.7,356.9H910.2M-.7,490.7H910.2" class="g2_1" />
</g>
<path d="M227.3,5822.1v135.4M454.7,5822.1v135.4M682.1,5822.1v135.4" class="g2_1" />
<g clip-path="url(#c0_1)">
<path d="M-.7,5867.5H910.2M-.7,5912.1H910.2M0,5822.1v135.4M909.4,5822.1v135.4M-.7,5822.9H910.2M-.7,5956.7H910.2" class="g2_1" />
</g>
<path fill-rule="evenodd" d="M153.3,6046.7L152,6048l3.5,3.5l1.3,-1.3Zm-15.3,0l-3.5,3.5l1.3,1.3l3.5,-3.5Zm16.1,-3.1l-5.3,5.2l.6,.6l1.7,-1.7l1.9,-1.9l1.7,-1.6Zm-16.9,0l-.6,.6l1.7,1.6l1.9,1.9l1.7,1.7l.6,-.6Zm5.2,-.6c.2,-.1,.4,-.1,.6,0c.2,.2,.2,.5,0,.6l-1.4,1.4c-.1,.1,-.2,.1,-.3,.1c-.1,0,-.2,0,-.3,-.1c-.1,-.2,-.1,-.4,0,-.6Zm-1.1,-1.5c.2,.2,.2,.4,0,.6l-2.1,2.3l2.4,2.4l2.5,-2.3c.2,-.1,.5,-.1,.6,.1c.2,.1,.2,.4,0,.6l-2.5,2.2l1.2,1.1c.1,.2,.1,.5,0,.6l-1.2,1.2c-.1,.1,-.2,.1,-.3,.1c-.1,0,-.2,0,-.3,-.1l-1.7,-1.7l-3.5,3.5l.6,.7c.2,.1,.2,.4,0,.6c0,0,-.1,.1,-.2,.1c-.2,0,-.3,-.1,-.3,-.1l-3.8,-3.8c-.2,-.2,-.2,-.5,0,-.6c.1,-.2,.4,-.2,.6,0l.6,.6l3.5,-3.5l-1.7,-1.7c0,0,-.1,-.1,-.1,-.2c0,-.2,.1,-.3,.1,-.3l1.2,-1.2c.2,-.2,.4,-.2,.6,0l1.2,1.1l2,-2.3c.2,-.1,.4,-.2,.6,0ZM134,6028.1l16.3,16.3c.2,.2,.2,.4,0,.6c-.1,.1,-.2,.1,-.3,.1c-.1,0,-.2,0,-.3,-.1l-16.3,-16.3v3.4l16.3,14.7l2.4,-2.4l-14.7,-16.3Zm19.7,-.8h4.7q.1,0,.1,0q.1,0,.1,0v.1q.1,0,.1,0v.1c0,.1,.1,.1,.1,.1q0,.1,0,.1v4.6c0,.1,-.1,.3,-.2,.3l-7.9,7.2c-.1,0,-.2,.1,-.3,.1c-.1,0,-.2,-.1,-.3,-.2c-.2,-.1,-.1,-.4,0,-.6l7.8,-7v-3.4l-9,9c-.1,.1,-.2,.1,-.3,.1c-.1,0,-.2,0,-.3,-.1c-.2,-.1,-.2,-.4,0,-.6l9,-9h-3.4l-6.8,7.6c-.2,.1,-.4,.2,-.6,0c-.2,-.1,-.2,-.4,0,-.6l6.9,-7.7c.1,-.1,.2,-.1,.3,-.1Zm-20.8,0h4.7c.1,0,.2,0,.3,.1l14.8,16.4l1.1,-1.1c.2,-.2,.4,-.2,.6,0l1.2,1.2c.1,0,.1,.1,.1,.3c0,.1,0,.2,-.1,.2l-1.7,1.7l3.5,3.5l.6,-.6c.2,-.2,.5,-.2,.6,0c.2,.1,.2,.4,0,.6l-3.7,3.8c-.1,0,-.2,.1,-.3,.1c-.1,0,-.2,-.1,-.3,-.1c-.2,-.2,-.2,-.5,0,-.6l.6,-.7l-3.5,-3.5l-1.7,1.7c0,.1,-.2,.1,-.3,.1c-.1,0,-.2,0,-.3,-.1l-1.1,-1.2c-.2,-.1,-.2,-.4,0,-.6l1.1,-1.1l-16.4,-14.8c-.1,0,-.1,-.2,-.1,-.3v-4.8q0,-.1,0,-.1q.1,0,.1,0q0,-.1,0,-.1h.1q.1,0,.1,0Z" class="g4_1" />
<path fill-rule="evenodd" d="M528.5,6045.6c-1.3,0,-2.5,.4,-3.3,1.1c-.9,.6,-1.3,1.3,-1.3,2.2c0,.8,.4,1.6,1.3,2.2c.8,.6,2,1,3.3,1c1.3,0,2.4,-.4,3.3,-1c.8,-.6,1.3,-1.4,1.3,-2.2c0,-.9,-.5,-1.6,-1.3,-2.2c-.9,-.7,-2,-1.1,-3.3,-1.1Zm5.2,-8.5c.2,0,.4,.1,.6,.2c.1,.2,.2,.4,.2,.5q0,.1,0,.2c0,0,-.1,.1,-.1,.1c0,0,0,.1,0,.1q-.1,.1,-.1,.1q-.1,.1,-.1,.1c-.1,0,-.1,.1,-.1,.1q-.1,0,-.2,0c0,0,-.1,0,-.1,0q-.1,0,-.1,0q-.1,0,-.2,0c0,0,-.1,-.1,-.1,-.1c0,0,-.1,0,-.1,-.1c0,0,-.1,0,-.1,-.1c0,0,0,-.1,-.1,-.1c0,0,0,-.1,0,-.1q0,-.1,0,-.2c0,0,0,-.1,0,-.1c0,0,0,-.1,0,-.1q.1,-.1,.1,-.2c0,0,.1,0,.1,-.1c0,0,.1,0,.1,0c0,-.1,.1,-.1,.1,-.1q.1,0,.2,-.1Zm-2,-7.6v4.2c.2,.3,.9,.9,2.5,1.1c2.3,.2,4.1,.6,5.4,1.4c-.2,-1.1,-.6,-2.4,-1,-2.9c-.1,-.2,-.1,-.3,-.3,-.4c-.7,-.9,-2.3,-1.7,-3.9,-2.1c-1,-.2,-1.9,-.8,-2.7,-1.3Zm-1,-2.2c.3,-.1,.6,0,.8,.2c.5,.5,1.9,1.6,3.2,1.9c1.9,.5,3.8,1.4,4.7,2.6c.2,.1,.3,.3,.4,.5c.9,1.2,1.3,4.1,1.4,5.4c0,.3,-.2,.6,-.4,.7c-.1,0,-.2,0,-.3,0c-.2,0,-.4,-.1,-.6,-.3c-.1,-.2,-.3,-.4,-.6,-.6c-1.1,-.8,-2.8,-1.3,-5.2,-1.6c-1.1,0,-1.9,-.3,-2.4,-.6v9.5c.3,.1,.7,.3,.9,.5c.2,.2,.3,.3,.5,.4v-6c0,-.4,.3,-.7,.7,-.7c.4,0,.7,.3,.7,.7v9.2c-.1,1.2,-.7,2.3,-1.9,3.1c-1.1,.8,-2.5,1.3,-4.1,1.3c-1.6,0,-3.1,-.5,-4.2,-1.3c-1.1,-.9,-1.8,-2.1,-1.8,-3.3c0,-1.3,.7,-2.5,1.8,-3.4c1.1,-.8,2.6,-1.2,4.2,-1.2c.6,0,1.2,0,1.8,.2V6028c0,-.3,.2,-.6,.4,-.7Z" class="g4_1" />
</svg>